# xmcd
#
# Track frame offsets:
#	150
#	20612
#	43291
#	60625
#	80675
#	97397
#	115317
#	142416
#	158501
#	173128
#	190770
#	211649
#	228914
#	242168
#	256661
#	268531
#	284693
#	299965
#	316177
#	331591
#
# Disc length: 4656
#
# Revision: 2
# Processed by: cddbd v1.5.1PL0 Copyright (c) Steve Scherf et al.
# Submitted via: audiograbber 1.82.01
# Normalized: r1:DSETVAR1,TDELIM( - )
#
DISCID=2e122e14
DTITLE=Various Artist - Solang´ man Träume noch leben kann
DYEAR=1999
DGENRE=Instrumental
TTITLE0=George Michael - Jesus to a child
TTITLE1=Elton John - Nikita
TTITLE2=Dolly Parton - I will always love you
TTITLE3=Madonna - Frozen
TTITLE4=Dieter Bohlen - You are not alone
TTITLE5=Mariah Carey - My all
TTITLE6=Bon Jovi - Bed of roses
TTITLE7=Herbert Grönemeyer - Flugzeuge im Bauch
TTITLE8=B. Crewe - Silence is golden
TTITLE9=Thompson - Tiefer
TTITLE10=Marius Müller Westernhagen - Wieder hier
TTITLE11=Evans - Guardian Angel
TTITLE12=Barry Ribb - To love somebody
TTITLE13=Bernd Rusinsky - Believe in me
TTITLE14=Bernd Rusinsky - Sailing away
TTITLE15=Bernd Rusinsky - Follow me to heaven
TTITLE16=Bernd Rusinsky - Stay
TTITLE17=Bernd Rusinsky - Venice
TTITLE18=Münchner Freiheit - Solang man Träume noch leben kann
TTITLE19=Albert Hammond - To all the girls I loved before
EXTD=
EXTT0=
EXTT1=
EXTT2=
EXTT3=
EXTT4=
EXTT5=
EXTT6=
EXTT7=
EXTT8=
EXTT9=
EXTT10=
EXTT11=
EXTT12=
EXTT13=
EXTT14=
EXTT15=
EXTT16=
EXTT17=
EXTT18=
EXTT19=
PLAYORDER=
